<svg id="Layer_1" data-name="Layer 1" xmlns="http://www.w3.org/2000/svg" xmlns:xlink="http://www.w3.org/1999/xlink" viewBox="0 0 50.01 50"><defs><style>.cls-1{fill:#8c8c8c;}.cls-2{clip-path:url(#clip-path);}</style><clipPath id="clip-path"><rect class="cls-1" width="50" height="50"/></clipPath><symbol id="Mute" data-name="Mute" viewBox="0 0 58.19 56.09"><path d="M0,17.86V37.34H13.38l.22.17L30.08,21V4.81L13.38,17.86Zm50.9-3.52-5.36,5.35a19.69,19.69,0,0,1,1.65,7.91,17.92,17.92,0,0,1-5,12.87l3.78,6.13c5.12-4.06,8.51-11.05,8.51-19A25.84,25.84,0,0,0,50.9,14.34Zm-20.82,36V35.15L21.53,43.7Z"/><polygon points="2.06 2.17 56.02 56.09 58.19 53.92 4.23 0 2.06 2.17"/></symbol></defs><rect class="cls-1" width="50" height="50"/><g class="cls-2"><use width="58.18" height="56.09" transform="translate(0 0.01) scale(0.86 0.89)" xlink:href="#Mute"/></g></svg>