<svg id="Layer_1" data-name="Layer 1" xmlns="http://www.w3.org/2000/svg" xmlns:xlink="http://www.w3.org/1999/xlink" viewBox="0 0 50 50"><defs><style>.cls-1{fill:#ca8d8d;}.cls-2{clip-path:url(#clip-path);}</style><clipPath id="clip-path"><rect class="cls-1" width="50" height="50"/></clipPath><symbol id="Volume_High" data-name="Volume High" viewBox="0 0 66.18 62.35"><polygon points="0 21.46 0 40.95 13.39 40.95 30.1 54 30.1 8.41 13.39 21.46 0 21.46"/><path d="M50.27,0,46.34,6.18c7.15,3.08,12.57,13.29,12.57,25S53.58,53,46.52,56.14l3.85,6.21C59.6,57.64,66.18,45.47,66.18,31.2S59.55,4.67,50.27,0Z"/><path d="M42.63,12l-3.85,6.05C42,20.9,44.1,25.78,44.1,31.2a17.91,17.91,0,0,1-5,12.88l3.79,6.13c5.13-4.05,8.52-11.05,8.52-19S47.88,16,42.63,12Z"/></symbol></defs><rect class="cls-1" width="50" height="50"/><g class="cls-2"><use width="66.18" height="62.35" transform="scale(0.76 0.8)" xlink:href="#Volume_High"/></g></svg>